<?xml version="1.0" encoding="UTF-8"?>
<!DOCTYPE svg PUBLIC "-//W3C//DTD SVG 1.1//EN" "http://www.w3.org/Graphics/SVG/1.1/DTD/svg11.dtd">
<svg version="1.1" xmlns="http://www.w3.org/2000/svg" xmlns:xlink="http://www.w3.org/1999/xlink" width="16" height="16"  xml:space="preserve" id="favicon">
    <path id="favicon-bezier" stroke="none" fill="rgb(0, 0, 0)" d="M 4.88,-0 C 3.23,-0 1.98,0.38 1.15,1.19 0.32,2 0,3.18 0,4.51 0,7.39 1.37,10.56 1.99,11.84 L 1.33,12.95 1.23,13.11 1.23,13.29 1.23,13.34 1.23,14 1.87,14 14.36,14 15,14 15,13.34 15,13.29 15,13.11 14.9,12.95 13.13,9.99 13.13,3.18 11.84,3.18 11.84,3.79 9.99,3.79 9.99,5.1 11.84,5.1 11.84,9.51 4.39,9.51 4.39,5.1 6.24,5.1 6.24,3.79 4.39,3.79 4.39,3.18 3.1,3.18 3.1,9.99 2.79,10.5 C 2.15,9 1.25,6.52 1.25,4.51 1.25,3.38 1.49,2.61 2.01,2.1 2.53,1.6 3.42,1.27 4.88,1.27 6.11,1.27 6.75,1.55 7.06,1.83 7.29,2.03 7.4,2.25 7.45,2.54 L 6.87,2.54 6.87,6.99 7.49,6.99 7.49,8.26 8.74,8.26 8.74,6.99 9.36,6.99 9.36,2.54 8.7,2.54 C 8.63,1.95 8.4,1.34 7.88,0.87 7.25,0.3 6.28,-0 4.88,-0 Z M 4.1,10.82 L 12.13,10.82 13.24,12.69 2.98,12.69 4.1,10.82 Z M 4.1,10.82" />
</svg>
